HIERARCHY
ROOT Hip
{
  OFFSET 0.0 0.0 0.0
  CHANNELS 6 Xposition Yposition Zposition Xrotation Yrotation Zrotation
  JOINT LowerSpine
  {
    OFFSET 0.0 0.061367 -0.03653
    CHANNELS 3 Xrotation Yrotation Zrotation
    JOINT MiddleSpine
    {
      OFFSET 0.0 0.056002 0.002633
      CHANNELS 3 Xrotation Yrotation Zrotation
      JOINT Chest
      {
        OFFSET 0.0 0.069296 -0.013882
        CHANNELS 3 Xrotation Yrotation Zrotation
        JOINT Neck
        {
          OFFSET 0.0 0.156156 -0.002923
          CHANNELS 3 Xrotation Yrotation Zrotation
          JOINT Head
          {
            OFFSET 0.0 0.088183 0.023986
            CHANNELS 3 Xrotation Yrotation Zrotation
            End Site
            {
              OFFSET 1e-06 0.123215 0.003678
            }
          }
        }
        JOINT LClavicle
        {
          OFFSET 0.014189 0.150698 0.046467
          CHANNELS 3 Xrotation Yrotation Zrotation
          JOINT LShoulder
          {
            OFFSET 0.082893 0.021616 -0.034976
            CHANNELS 3 Xrotation Yrotation Zrotation
            JOINT LForearm
            {
              OFFSET 0.195645 -0.000695 -0.001695
              CHANNELS 3 Xrotation Yrotation Zrotation
              JOINT LHand
              {
                OFFSET 0.163209 0.000474 -0.000977
                CHANNELS 3 Xrotation Yrotation Zrotation
                End Site
                {
                  OFFSET 0.0 0.006864 0.0
                }
              }
            }
          }
        }
        JOINT RClavicle
        {
          OFFSET -0.014189 0.150698 0.046467
          CHANNELS 3 Xrotation Yrotation Zrotation
          JOINT RShoulder
          {
            OFFSET -0.082908 0.021619 -0.034982
            CHANNELS 3 Xrotation Yrotation Zrotation
            JOINT RForearm
            {
              OFFSET -0.195645 -0.000695 -0.001695
              CHANNELS 3 Xrotation Yrotation Zrotation
              JOINT RHand
              {
                OFFSET -0.163209 0.000474 -0.000977
                CHANNELS 3 Xrotation Yrotation Zrotation
                End Site
                {
                  OFFSET 0.0 0.006864 0.0
                }
              }
            }
          }
        }
      }
    }
  }
  JOINT RThigh
  {
    OFFSET -0.072558 0.02774 -0.005953
    CHANNELS 3 Xrotation Yrotation Zrotation
    JOINT RShin
    {
      OFFSET -0.005253 -0.285537 0.0
      CHANNELS 3 Xrotation Yrotation Zrotation
      JOINT RFoot
      {
        OFFSET 0.0 -0.28038 0.0
        CHANNELS 3 Xrotation Yrotation Zrotation
        JOINT RToe
        {
          OFFSET 0.0 -0.030816 0.064441
          CHANNELS 3 Xrotation Yrotation Zrotation
          End Site
          {
            OFFSET 0.0 0.0 0.043231
          }
        }
      }
    }
  }
  JOINT LThigh
  {
    OFFSET 0.072557 0.027741 -0.005953
    CHANNELS 3 Xrotation Yrotation Zrotation
    JOINT LShin
    {
      OFFSET 0.005253 -0.285539 0.0
      CHANNELS 3 Xrotation Yrotation Zrotation
      JOINT LFoot
      {
        OFFSET 0.0 -0.28038 0.0
        CHANNELS 3 Xrotation Yrotation Zrotation
        JOINT LToe
        {
          OFFSET 0.0 -0.030816 0.064441
          CHANNELS 3 Xrotation Yrotation Zrotation
          End Site
          {
            OFFSET 0.0 0.0 0.043231
          }
        }
      }
    }
  }
}
MOTION
Frames: 12
Frame Time: 0.03333333333333333
-0.026425 0.465951 -0.104289 69.262489 4.546194 2.697298 -12.234445 -0.862406 4.09234 -0.869962 0.956687 -1.967023 -8.937166 -0.01458 -6.536882 -9.715018 -0.699679 -0.035467 -0.055974 -0.244951 -0.164398 1.796495 1.299716 -24.994385 44.65638 -22.444153 -29.205992 25.957737 -30.986229 0.468273 0.10771 0.076274 -0.110943 1.003863 -2.806456 23.777124 29.781914 28.781143 47.246708 6.266665 17.467806 3.453698 -0.217158 0.130182 -0.077575 -103.014336 8.217039 1.718434 46.653667 1.831715 -5.02115 -12.643762 -1.031999 -1.722183 -0.074208 -0.350724 -0.153271 -102.596252 -6.227499 9.700967 54.909554 7.258096 -13.870404 -4.4475 0.484919 0.787768 0.021457 -0.020989 0.082501 
-0.025409 0.472563 -0.101334 68.346893 4.655037 2.611053 -11.753696 -0.790603 3.898768 -0.833788 1.003513 -1.965255 -8.55091 0.213127 -6.407483 -9.400058 -0.657637 -0.030878 -0.061746 -0.193797 -0.150386 1.791656 1.349384 -24.486656 43.667274 -23.038845 -30.305908 25.114006 -30.721464 0.308014 0.088525 0.060741 -0.102637 1.005567 -2.681809 23.384947 29.065128 29.960114 47.690586 5.949755 16.614216 3.494565 -0.169723 0.128495 -0.068438 -101.10537 8.207336 1.475129 45.088066 1.772916 -4.74836 -12.148432 -0.976165 -1.598542 -0.051838 -0.333959 -0.165359 -100.404305 -5.141583 9.502499 52.924194 7.561205 -13.534469 -4.432202 0.408824 0.626523 0.003317 -0.001415 0.085404 
-0.023672 0.480215 -0.098891 67.163963 4.618022 2.53533 -11.16156 -0.725178 3.674185 -0.856307 1.066145 -1.918915 -8.227853 0.511388 -6.195893 -9.017894 -0.594422 -0.008287 -0.065272 -0.14884 -0.136116 1.772547 1.377496 -23.81749 42.689255 -23.676552 -31.571123 24.445503 -30.508423 0.169949 0.073954 0.051188 -0.095792 0.983447 -2.547101 22.892517 28.281904 31.285891 48.176868 5.707033 15.618698 3.50517 -0.125819 0.122022 -0.06076 -98.692154 8.193039 1.191646 43.004208 1.696953 -4.424339 -11.531185 -0.910359 -1.452811 -0.024374 -0.302783 -0.171413 -97.547821 -3.7965 9.2732 50.27211 7.921816 -13.095461 -4.413319 0.321944 0.460167 -0.009037 0.010556 0.083591 
-0.02159 0.488767 -0.096769 64.623016 4.381695 2.188978 -10.384502 -0.696627 3.346035 -0.888334 1.105481 -1.780353 -7.906612 0.935628 -5.751376 -8.543269 -0.509091 0.047076 -0.067188 -0.106095 -0.12352 1.747532 1.397538 -22.92378 41.426395 -24.403316 -33.323624 23.774906 -30.307913 -0.027715 0.066965 0.048384 -0.095186 0.957345 -2.407271 22.405798 27.300377 32.675854 48.813019 5.456392 14.496387 3.561813 -0.072566 0.105974 -0.05266 -94.480675 8.012035 0.801107 39.837463 1.621883 -3.968144 -10.725723 -0.842471 -1.267352 0.010837 -0.249967 -0.167949 -92.848335 -2.321129 9.019066 46.653507 8.185524 -12.468225 -4.287473 0.220829 0.286886 -0.018009 0.015492 0.077745 
-0.019323 0.498908 -0.091519 60.852001 4.085372 1.762048 -9.448421 -0.701911 2.929518 -0.916135 1.130509 -1.607985 -7.62956 1.444446 -5.203091 -7.967586 -0.406369 0.119697 -0.069511 -0.054817 -0.109246 1.699197 1.435814 -21.853371 39.826931 -25.238327 -35.577942 22.849802 -29.833208 -0.243453 0.060167 0.04332 -0.094466 0.924151 -2.225078 21.863943 25.981703 33.983826 49.747974 4.951206 13.08763 3.56269 -0.009578 0.082963 -0.043617 -87.949562 7.694924 0.266531 35.590656 1.440496 -3.393649 -9.789933 -0.738665 -1.044674 0.053233 -0.188441 -0.16306 -85.491203 -0.615717 8.671441 41.631771 8.421009 -11.558626 -4.142972 0.100804 0.086897 -0.029647 0.015808 0.065938 
-0.016794 0.510425 -0.079166 55.958889 3.711953 1.330003 -8.417779 -0.707563 2.489543 -0.934379 1.137622 -1.410464 -7.427928 2.018708 -4.595085 -7.334097 -0.299759 0.203281 -0.071166 -0.002511 -0.094795 1.607757 1.467854 -20.713638 37.954285 -25.861582 -38.173607 21.70788 -29.091398 -0.457671 0.053917 0.036427 -0.093585 0.862799 -1.977926 21.293039 24.538172 35.177094 50.793468 4.364803 11.54192 3.555492 0.057034 0.060039 -0.03489 -78.900894 7.287523 -0.317861 30.859335 1.226739 -2.762214 -8.788236 -0.627013 -0.808035 0.099343 -0.125858 -0.159527 -74.958832 1.297017 8.270103 35.619942 8.645292 -10.492195 -3.965211 -0.021066 -0.121407 -0.04385 0.011963 0.047188 
-0.013461 0.522352 -0.0572 49.993298 3.169884 1.133659 -7.335809 -0.690254 2.032089 -0.999159 1.140737 -1.21911 -7.272765 2.585327 -3.926647 -6.627591 -0.212868 0.284602 -0.076788 0.06749 -0.078498 1.453274 1.523559 -19.517864 36.008766 -26.328171 -40.984283 20.501848 -28.228804 -0.681815 0.036453 0.014366 -0.080825 0.80623 -1.664789 20.716364 22.956482 36.211739 51.905174 3.853364 9.984259 3.626379 0.140663 0.040486 -0.019891 -67.000252 6.879904 -0.993879 25.794281 0.984342 -2.098819 -7.798595 -0.539374 -0.568833 0.137959 -0.087594 -0.156987 -61.021629 3.403001 7.699993 28.800596 8.910085 -9.28544 -3.797068 -0.120929 -0.348153 -0.068044 0.025298 0.043012 
-0.010383 0.532371 -0.027356 42.217659 2.407711 1.092924 -6.181275 -0.639092 1.533867 -1.100267 1.124239 -1.039723 -6.989923 3.151971 -3.172935 -5.822236 -0.136416 0.34058 -0.087073 0.151503 -0.056917 1.253301 1.61172 -18.246975 33.955936 -26.671366 -43.918648 19.178518 -27.345837 -0.984945 0.00427 -0.025752 -0.052914 0.740459 -1.291334 20.099699 21.106655 37.127701 53.1539 3.347075 8.383843 3.763256 0.233892 0.031192 0.000815 -51.73888 6.375122 -1.693484 20.350876 0.653098 -1.350243 -6.801215 -0.443458 -0.300716 0.177497 -0.074445 -0.156683 -43.771114 5.648417 7.090778 21.481125 9.180382 -7.839113 -3.5795 -0.195299 -0.585007 -0.103256 0.050013 0.046466 
-0.010413 0.539587 -0.003115 33.197899 1.823289 1.141583 -5.062954 -0.59518 1.043647 -1.157478 1.108148 -0.850441 -6.674428 3.731965 -2.291905 -5.008038 -0.050035 0.346994 -0.093577 0.219997 -0.03523 1.065048 1.659534 -17.059111 31.75021 -26.622683 -46.791931 17.794081 -26.570761 -1.191529 -0.024969 -0.060623 -0.022528 0.686002 -0.900219 19.48572 19.149115 38.082333 54.542473 3.194161 6.980679 3.886644 0.297111 0.03015 0.018506 -35.803593 5.767941 -2.20425 15.055533 0.356929 -0.70924 -5.840261 -0.34501 -0.045014 0.195995 -0.056628 -0.145855 -27.613117 7.815923 6.51772 14.862938 9.382053 -6.377847 -3.269988 -0.280609 -0.788625 -0.129277 0.068889 0.043389 
-0.01312 0.546098 0.005553 23.443893 1.645689 1.257631 -4.108438 -0.537149 0.597924 -1.194245 1.110162 -0.686334 -6.370664 4.239932 -1.274218 -4.230422 0.00398 0.288181 -0.102674 0.283505 -0.009035 0.900855 1.760492 -15.984549 29.628733 -26.288399 -49.48259 16.648546 -26.127625 -1.295143 -0.060972 -0.098808 0.017197 0.668272 -0.386124 18.881266 17.415981 38.692802 55.882256 3.42439 6.045901 3.972649 0.338933 0.048264 0.033794 -21.944584 4.862623 -2.58724 10.244247 0.05157 -0.172733 -4.938037 -0.17411 0.234555 0.212386 -0.06253 -0.138688 -14.807532 9.824628 5.936531 8.868021 9.499249 -4.837076 -2.768977 -0.45943 -1.009383 -0.153276 0.091591 0.036183 
-0.017934 0.552457 0.00153 14.707945 1.04087 1.834962 -3.317909 -0.475987 0.305286 -1.443839 1.174253 -0.436545 -6.383226 4.632433 -0.165594 -3.592911 0.06104 0.177858 -0.104255 0.288775 0.014234 0.722959 1.811499 -15.092625 28.306511 -25.088329 -51.725464 15.798255 -26.545771 -1.217207 -0.092953 -0.129771 0.049967 0.540581 0.074907 18.153259 16.793867 38.159874 56.897278 4.289017 6.449972 3.898818 0.340598 0.044413 0.039552 -13.145046 3.793865 -2.538843 8.07934 -0.065729 0.133566 -4.106217 0.063658 0.420428 0.227731 -0.072031 -0.121608 -6.612039 11.157765 5.351082 5.062949 9.204154 -3.520894 -2.212284 -0.709512 -1.096883 -0.161947 0.096804 0.02495 
-0.019908 0.558495 -0.001449 9.437792 0.658758 2.009005 -2.826427 -0.382602 0.199484 -1.573263 1.16165 -0.292786 -6.186218 4.874255 0.618909 -3.148928 0.03592 0.133239 -0.11656 0.295241 0.029314 0.520233 1.844891 -14.622651 27.453966 -23.887499 -53.13065 15.028539 -27.404221 -1.099366 -0.121981 -0.160394 0.082057 0.405 0.295932 17.743389 16.648762 37.014221 57.305035 5.025729 7.500473 3.852101 0.330542 0.05397 0.041831 -8.348027 2.991313 -2.43088 6.86871 -0.02727 0.301116 -3.468876 0.32812 0.613583 0.217425 -0.122553 -0.120582 -2.06823 12.000305 4.687 2.984347 8.890821 -2.572978 -1.839835 -0.838696 -1.095249 -0.192422 0.116011 0.027974 
